<svg width="22" height="20" viewBox="0 0 22 20" fill="none" xmlns="http://www.w3.org/2000/svg">
<path d="M21.5438 9.83945L12.1673 0.818743L11.5388 0.213781C11.3956 0.0768506 11.2019 0 11 0C10.7982 0 10.6045 0.0768506 10.4613 0.213781L0.456308 9.83945C0.309572 9.98014 0.193604 10.1477 0.11525 10.3322C0.036895 10.5168 -0.0022583 10.7146 0.000100583 10.9139C0.00980713 11.7361 0.720812 12.3924 1.57499 12.3924H2.60631V20H19.3938V12.3924H20.4469C20.8619 12.3924 21.2526 12.2359 21.5462 11.9533C21.6908 11.8146 21.8053 11.6496 21.8832 11.468C21.9611 11.2864 22.0008 11.0917 22 10.8952C22 10.4981 21.8374 10.1221 21.5438 9.83945V9.83945ZM12.359 18.3183H9.64113V13.5533H12.359V18.3183ZM17.6466 10.7107V18.3183H13.912V12.9927C13.912 12.4765 13.4776 12.0584 12.9414 12.0584H9.05873C8.52245 12.0584 8.08808 12.4765 8.08808 12.9927V18.3183H4.35349V10.7107H2.02392L11.0025 2.07538L11.563 2.61494L19.9786 10.7107H17.6466Z" fill="#121654" fill-opacity="0.4"/>
</svg>
