<svg width="20" height="20" viewBox="0 0 20 20" fill="none" xmlns="http://www.w3.org/2000/svg">
<path d="M6.06299 15.7889C5.84379 15.6396 5.69288 15.4093 5.64347 15.1487C5.59405 14.8881 5.65017 14.6186 5.79949 14.3994C5.94881 14.1802 6.17909 14.0293 6.43967 13.9799C6.70025 13.9305 6.96979 13.9866 7.18899 14.1359C8.11222 14.7635 9.21892 15.0641 10.3328 14.9898C11.4467 14.9155 12.5036 14.4706 13.3353 13.7259C14.167 12.9812 14.7256 11.9796 14.922 10.8807C15.1184 9.78173 14.9414 8.64867 14.4192 7.66199C13.897 6.6753 13.0596 5.89176 12.0405 5.43618C11.0213 4.98061 9.87899 4.8792 8.79551 5.14813C7.71203 5.41705 6.74972 6.04084 6.06187 6.9201C5.37402 7.79937 5.00021 8.88354 4.99999 9.99989C4.99999 10.2651 4.89463 10.5195 4.7071 10.707C4.51956 10.8945 4.26521 10.9999 3.99999 10.9999C3.73477 10.9999 3.48042 10.8945 3.29288 10.707C3.10535 10.5195 2.99999 10.2651 2.99999 9.99989C3.00023 8.4369 3.52356 6.91895 4.4866 5.6879C5.44964 4.45685 6.79699 3.58352 8.31396 3.20705C9.83094 2.83059 11.4303 2.97265 12.8571 3.61061C14.284 4.24856 15.4563 5.3457 16.1873 6.72723C16.9183 8.10875 17.1658 9.69518 16.8906 11.2337C16.6153 12.7723 15.8331 14.1745 14.6684 15.2169C13.5038 16.2593 12.0238 16.8819 10.4643 16.9856C8.90472 17.0892 7.35534 16.668 6.06299 15.7889V15.7889Z" fill="#0078D3"/>
<path d="M6.46084 7.49399C6.57148 7.42321 6.69497 7.37491 6.82428 7.35186C6.95358 7.3288 7.08616 7.33144 7.21444 7.35962C7.34273 7.38781 7.46421 7.44098 7.57194 7.51611C7.67967 7.59124 7.77155 7.68685 7.84234 7.79749C7.91312 7.90813 7.96142 8.03163 7.98447 8.16093C8.00753 8.29024 8.00489 8.42282 7.9767 8.5511C7.94852 8.67938 7.89535 8.80086 7.82022 8.9086C7.74509 9.01633 7.64947 9.10821 7.53884 9.17899L4.05684 11.406C3.83346 11.5442 3.56465 11.589 3.30851 11.5307C3.05237 11.4723 2.82948 11.3156 2.688 11.0942C2.54652 10.8729 2.49783 10.6047 2.55244 10.3478C2.60704 10.0908 2.76057 9.86567 2.97984 9.72099L6.46084 7.49399Z" fill="#0078D3"/>
<path d="M1.09699 7.5899C0.994909 7.34875 0.991492 7.07718 1.08747 6.83354C1.18345 6.5899 1.37118 6.39364 1.6103 6.28691C1.84943 6.18018 2.12088 6.1715 2.36633 6.26275C2.61178 6.354 2.81165 6.53788 2.92299 6.7749L4.43099 10.1549C4.48752 10.2752 4.51948 10.4056 4.52501 10.5385C4.53054 10.6713 4.50953 10.8039 4.46321 10.9285C4.41688 11.0531 4.34617 11.1673 4.25521 11.2642C4.16424 11.3612 4.05486 11.4391 3.93345 11.4932C3.81205 11.5474 3.68105 11.5769 3.54814 11.5798C3.41522 11.5828 3.28304 11.5592 3.15935 11.5105C3.03565 11.4618 2.92291 11.3888 2.82772 11.296C2.73254 11.2032 2.65682 11.0923 2.60499 10.9699L1.09699 7.5899Z" fill="#0078D3"/>
</svg>
