<svg width="60" height="60" viewBox="0 0 60 60" fill="none" xmlns="http://www.w3.org/2000/svg">
<g clip-path="url(#clip0_328_4101)">
<path d="M31.1996 29.2345C25.4853 23.3353 15.0381 22.2212 15.0381 22.2212C14.7931 22.4688 14.5368 22.7548 14.2735 23.0749C5.48098 38.8674 1.25791 53.9057 0.77914 55.6658C0.772099 55.7228 0.762242 55.7797 0.755201 55.8366C0.754514 55.8437 0.754514 55.8508 0.755201 55.8579H0.750977C0.750977 55.8579 0.891792 56.8539 2.3774 58.3565C3.863 59.8591 4.85012 59.9999 4.85012 59.9999C4.85012 59.9999 20.0498 55.6502 37.4532 46.198C37.7052 45.9803 37.9348 45.7712 38.139 45.562C38.1404 45.5649 37.0364 35.0029 31.1996 29.2345Z" fill="#FACD35"/>
<path d="M11.1557 29.0054C10.0911 31.1482 9.11244 33.247 8.21826 35.266C9.07724 42.1826 17.5121 51.1837 22.1816 53.5869C23.5897 52.9808 25.0551 52.3301 26.5778 51.6348C18.257 47.7759 10.346 36.4257 11.1557 29.0054Z" fill="#F41B60"/>
<path d="M5.23908 42.4487C4.60119 44.0921 4.03511 45.6289 3.53662 47.0347C4.60119 50.5918 7.90191 55.0027 12.0109 57.6137C13.2022 57.1868 14.5174 56.6917 15.9383 56.141C11.5251 53.7663 6.08398 47.2723 5.23908 42.4487Z" fill="#F41B60"/>
<g style="mix-blend-mode:multiply">
<path d="M38.1404 45.5643C37.7206 42.3255 36.8792 39.1568 35.6381 36.1406C33.8075 37.784 35.2438 41.6898 33.1625 42.9975C32.7401 43.3133 34.2694 46.7325 33.7512 46.6172C30.3279 45.8617 26.9258 47.4269 25.0333 48.6164C15.6775 54.5099 5.75417 59.0489 3.61377 59.4032C4.38544 59.9311 4.85154 59.9994 4.85154 59.9994C4.85154 59.9994 20.0512 55.6496 37.4546 46.1975C37.7067 45.9826 37.9362 45.7692 38.1404 45.5643Z" fill="#F9D2AC"/>
</g>
<path d="M38.1907 45.5137C41.1399 42.5336 38.359 34.8921 31.9794 28.4458C25.5998 21.9995 18.0373 19.1895 15.0881 22.1696C12.1389 25.1496 14.9197 32.7912 21.2994 39.2375C27.679 45.6838 35.2415 48.4937 38.1907 45.5137Z" fill="#FFDE52"/>
<path d="M37.4664 44.4593C40.0526 41.846 37.3729 34.9013 31.4811 28.9478C25.5893 22.9944 18.7164 20.2867 16.1301 22.9C13.5439 25.5133 16.2235 32.458 22.1154 38.4115C28.0072 44.3649 34.8801 47.0726 37.4664 44.4593Z" fill="url(#paint0_radial_328_4101)"/>
<path d="M1.50724 53.1689C1.11577 54.4495 0.876383 55.3104 0.780628 55.6604L0.751057 55.8368C0.750369 55.8439 0.750369 55.8511 0.751057 55.8582C0.751057 55.8582 0.660935 56.9566 2.14513 58.4549C3.62933 59.9532 4.8502 60.0001 4.8502 60.0001C4.8502 60.0001 5.436 59.8322 6.50479 59.4922C4.13063 57.8715 2.23807 55.6177 1.50724 53.1689Z" fill="#F41B60"/>
<g style="mix-blend-mode:screen" opacity="0.5">
<path d="M6.38374 49.4042C7.65108 47.1276 8.95362 44.8851 10.3181 42.674C11.3038 41.0889 12.3515 38.8678 13.2753 37.2671C13.9582 36.0833 15.679 33.2617 14.9327 32.1348C13.916 30.6009 11.9854 34.6177 11.4123 35.5981C10.1646 37.7551 9.09021 40.009 7.89187 42.1916C6.73296 44.3018 5.63882 46.4489 4.63199 48.6373C4.10111 49.7898 3.00416 51.8942 2.52538 53.0638C2.33669 53.5248 1.87482 54.4568 1.74527 55.2152C1.73016 55.3115 1.74625 55.4102 1.79114 55.4965C1.83602 55.5828 1.90731 55.6522 1.99436 55.6942C2.08142 55.7363 2.1796 55.7488 2.27427 55.7299C2.36894 55.711 2.45505 55.6618 2.51975 55.5894C3.61107 54.3729 5.65853 50.7019 6.38374 49.4042Z" fill="#F9D2AC"/>
</g>
<path d="M21.4973 30.0667C24.6544 27.4329 28.5817 23.8615 29.314 19.5232C29.5956 17.8157 29.0042 15.9816 27.6242 14.9017C26.5723 14.0764 25.2711 13.8374 23.9714 13.9384C22.2915 14.0693 20.6721 15.5619 18.9879 15.145C18.2205 14.9543 17.6826 13.9569 17.8769 13.1857C18.0051 12.6763 18.343 12.2167 18.6965 11.8397C19.4428 11.0429 20.4538 10.5406 21.4424 10.1223C23.3233 9.34017 25.3183 8.87489 27.3482 8.74491C27.9044 8.70649 27.3482 6.34879 26.5483 6.40428C24.7736 6.51898 23.024 6.88836 21.3522 7.50132C19.785 8.0847 18.0065 8.89858 17.1179 10.4125C16.3885 11.6604 16.435 13.153 16.925 14.4791C17.3207 15.5505 17.9755 16.2691 18.8668 16.6276C19.3287 16.8126 20.0483 16.5181 20.6327 16.5095C22.2169 16.4853 23.6504 15.8778 25.2317 15.8337C26.0865 15.8095 27.8058 16.5266 28.1621 17.4387C28.3944 18.0334 27.5439 19.6726 27.1961 20.3214C25.595 23.3208 23.0448 25.7511 20.4736 27.8968C19.961 28.3237 20.8819 30.5775 21.4945 30.0667H21.4973Z" fill="#F41B60"/>
<path d="M27.5607 15.0512C26.5559 14.2199 25.2673 13.8222 23.9742 13.9442C22.2942 14.0751 20.4538 14.8876 18.764 14.4707C18.1683 14.3284 17.8487 14.0979 17.8262 13.6426C17.6431 14.7809 17.9529 15.932 18.871 16.6306C19.3714 16.8233 19.9045 16.9142 20.4397 16.8981C22.0253 16.8739 23.5376 16.3076 25.1246 16.2635C25.9794 16.2393 27.8086 16.5324 28.1648 17.4445C28.1937 17.5276 28.2071 17.6154 28.2043 17.7035C28.3761 16.9977 28.4831 15.821 27.5607 15.0512Z" fill="#AF0068"/>
<path d="M55.792 16.5602C55.5104 16.0351 53.3376 16.7138 53.3488 16.7323C54.0177 17.9902 53.8107 19.9139 52.38 20.5542C52.3519 20.5357 52.1378 20.5414 52.0984 20.5143C51.9365 20.3977 51.7956 20.3422 51.6238 20.2298C51.3197 20.0206 50.8494 19.8029 50.5874 19.5468C50.034 18.999 49.8327 18.2989 49.1469 17.9091C48.1218 17.3285 46.7896 17.3399 45.6687 17.5918C44.2676 17.9034 43.6283 18.9179 43.3551 20.2952C43.2073 21.0323 43.2073 21.7892 43.0538 22.5234C42.9841 22.8921 42.8746 23.2518 42.7271 23.5963C42.6174 23.8391 42.4752 24.0655 42.3047 24.2693C42.2637 24.3174 42.219 24.3622 42.1709 24.403C42.0075 24.3163 41.6386 24.3846 41.578 24.3419C41.3218 24.1626 40.9894 24.0715 40.7557 23.8624C40.2671 23.4241 40.1319 22.6828 39.5517 22.3626C38.5167 21.7935 37.2987 21.7451 36.1581 21.9358C34.7499 22.1634 34.2782 22.9247 34.1542 24.3362C34.0757 25.2471 34.1188 26.1645 34.2824 27.0638C34.4133 27.7966 34.6415 28.5365 34.6006 29.2892C34.5626 29.985 34.1078 31.1261 33.2953 31.2243C32.5081 31.3196 31.0422 30.4275 30.4212 30.0149C30.0593 29.7715 29.6749 29.9096 29.2722 29.9608C29.1694 29.9736 28.0048 29.9508 28.2287 30.1031C29.596 31.0194 30.9366 31.7493 32.6095 31.7693C33.9163 31.7849 35.6807 31.627 36.5523 30.5029C37.5592 29.201 36.7368 27.4452 36.6016 25.9938C36.5191 25.1398 36.5494 24.2786 36.6917 23.4326C36.7706 22.9773 37.0846 22.6031 37.1142 22.6017C37.4372 22.5793 37.7572 22.677 38.014 22.8763C39.1645 23.7912 39.8629 24.8769 41.4231 24.9836C42.3455 25.0476 43.2946 25.1259 44.0986 24.6592C44.4748 24.4429 44.7869 24.129 45.0027 23.7499C45.9405 22.0994 45.2843 19.8897 46.5066 18.3729C46.578 18.3002 46.6579 18.2367 46.7446 18.1837C46.7629 18.1922 46.9248 18.1837 46.9347 18.1837C47.2036 18.4113 47.612 18.5977 47.8781 18.8382C48.2217 19.1498 48.2921 19.5027 48.6202 19.8342C48.973 20.2102 49.3845 20.525 49.8383 20.7662C52.5096 22.0539 57.7465 20.2326 55.792 16.5602Z" fill="#48B5FF"/>
<path d="M30.5827 29.7908C30.2208 29.5489 29.4716 29.6869 29.0689 29.7381C28.9661 29.7509 28.0184 29.9345 28.2353 30.0796C29.5125 30.9333 31.8655 31.7742 33.2117 31.2108C32.4189 31.2207 31.1769 30.1892 30.5827 29.7908Z" fill="#216BD6"/>
<path d="M51.7262 20.1832C51.4286 19.9623 51.1502 19.7162 50.894 19.4476C50.3406 18.8997 49.8351 18.2936 49.1493 17.9037C49.062 17.8539 48.9705 17.8098 48.8775 17.7615C48.158 17.6932 47.3384 17.7031 46.7568 18.1584C47.0385 18.2723 47.4018 18.5981 47.6482 18.8229C48.372 19.4789 49.5816 21.4737 52.381 20.5474C52.1533 20.4443 51.9343 20.3225 51.7262 20.1832Z" fill="#216BD6"/>
<path d="M42.1776 24.3927C42.0143 24.3059 41.8566 24.2233 41.796 24.1806C41.5423 23.9967 41.2997 23.7976 41.0694 23.5845C40.5808 23.1462 40.1386 22.6724 39.5585 22.3523C39.4627 22.2996 39.3627 22.2555 39.2642 22.21C38.5291 22.0392 37.7321 22.1004 37.1294 22.5842C37.3745 22.7168 37.6069 22.8721 37.8236 23.048C38.9741 23.9629 39.781 25.0159 41.344 25.124C42.2678 25.188 43.3154 25.1112 44.1153 24.6402C43.2155 24.9533 42.1974 24.3756 42.1776 24.3927Z" fill="#216BD6"/>
<path d="M49.924 41.1283C47.4259 38.8275 43.7464 37.8344 40.471 37.4772C35.1375 36.9008 29.7721 38.2238 25.3009 41.218L25.2925 41.2251C25.7938 41.6135 26.2979 41.9792 26.7992 42.3193C30.8884 40.1457 35.5141 39.2184 40.1147 39.65C43.1817 39.9488 46.3895 41.2151 49.341 43.3195C49.9535 43.7578 50.2746 41.5964 49.924 41.1283Z" fill="#F41B60"/>
<path d="M46.6032 30.9577L46.1159 28.8845C46.0946 28.7999 46.1009 28.7105 46.1339 28.6297C46.1669 28.549 46.2248 28.4811 46.299 28.4363C47.0819 27.9924 48.9125 27.658 49.9349 27.8103C50.0291 27.8235 50.119 27.8584 50.1976 27.9125C50.2763 27.9665 50.3415 28.0382 50.3883 28.1219C50.7105 28.7994 50.8734 29.543 50.8642 30.2946C50.8575 30.353 50.829 30.4065 50.7845 30.4443C50.74 30.4821 50.6829 30.5014 50.6249 30.4981C49.5701 30.5194 47.3565 30.9249 46.9383 31.1241C46.9059 31.1401 46.8703 31.1483 46.8343 31.1482C46.7983 31.1481 46.7628 31.1398 46.7304 31.1237C46.6981 31.1076 46.6698 31.0843 46.6478 31.0556C46.6257 31.0268 46.6105 30.9933 46.6032 30.9577Z" fill="#F41B60"/>
<path d="M44.1223 51.6787L42.1861 49.6212C42.1073 49.5376 42.0565 49.431 42.0411 49.3166C42.0257 49.2021 42.0464 49.0857 42.1002 48.9838C42.4058 48.4004 43.9209 46.4923 45.1981 45.9758C45.3148 45.9276 45.4409 45.9072 45.5666 45.9161C45.6924 45.925 45.8144 45.9629 45.9233 46.0271C46.619 46.444 47.5596 47.4898 47.9088 48.1984C47.9394 48.2698 47.9419 48.3504 47.9157 48.4236C47.8895 48.4969 47.8367 48.5572 47.768 48.5925C46.5725 49.331 44.9517 51.1153 44.6152 51.6346C44.5892 51.675 44.5545 51.709 44.5136 51.7338C44.4728 51.7587 44.4269 51.7738 44.3794 51.7781C44.3319 51.7823 44.284 51.7756 44.2395 51.7584C44.195 51.7411 44.1549 51.7139 44.1223 51.6787Z" fill="#86D61E"/>
<path d="M40.8836 5.61899L41.6159 7.57118C41.6777 7.73519 41.6891 7.91424 41.6487 8.08493C41.6082 8.25561 41.5177 8.40998 41.389 8.52787C41.2603 8.64576 41.0994 8.72168 40.9274 8.7457C40.7553 8.76972 40.5801 8.74073 40.4246 8.66252L38.594 7.74477C38.5467 7.72159 38.4939 7.71224 38.4417 7.71777C38.3894 7.72331 38.3397 7.7435 38.2983 7.77607L36.6746 9.10646C36.539 9.2168 36.3734 9.28308 36.1997 9.29659C36.0261 9.3101 35.8524 9.27022 35.7016 9.18217C35.5508 9.09412 35.4299 8.96204 35.3547 8.80327C35.2796 8.6445 35.2537 8.46647 35.2806 8.29257L35.5946 6.24079C35.6035 6.18632 35.5965 6.13042 35.5745 6.07989C35.5525 6.02936 35.5164 5.98639 35.4707 5.95622L33.7161 4.81792C33.5693 4.72278 33.4545 4.58504 33.3866 4.42276C33.3187 4.26049 33.301 4.08126 33.3357 3.90861C33.3704 3.73596 33.456 3.57794 33.5812 3.45531C33.7063 3.33268 33.8653 3.25116 34.0372 3.22145L36.0959 2.87854C36.1485 2.86869 36.1972 2.84392 36.2363 2.80713C36.2755 2.77034 36.3034 2.72306 36.317 2.6708L36.8225 0.658856C36.8651 0.488172 36.9578 0.334511 37.0885 0.218072C37.2192 0.101634 37.3816 0.0278673 37.5545 0.00646893C37.7275 -0.0149294 37.9027 0.0170421 38.0573 0.0981808C38.212 0.17932 38.3386 0.305828 38.4208 0.461077L39.4065 2.32077C39.4325 2.36659 39.4707 2.40418 39.5167 2.42931C39.5627 2.45444 39.6148 2.46613 39.667 2.46306L41.7088 2.34212C41.882 2.33171 42.0543 2.3743 42.2032 2.46432C42.3521 2.55434 42.4707 2.68761 42.5435 2.84676C42.6163 3.0059 42.64 3.18352 42.6114 3.35646C42.5828 3.52939 42.5034 3.68961 42.3833 3.81621L40.9484 5.32731C40.9119 5.36507 40.8865 5.41235 40.8751 5.46386C40.8636 5.51538 40.8666 5.56909 40.8836 5.61899Z" fill="#FFE33E"/>
<path d="M57.8266 35.8452L57.3816 37.1912C57.3444 37.3046 57.2741 37.404 57.1801 37.4764C57.086 37.5488 56.9726 37.5908 56.8545 37.597C56.7364 37.6031 56.6192 37.5731 56.5183 37.5109C56.4174 37.4486 56.3374 37.3571 56.2889 37.2481L55.7143 35.9675C55.6997 35.9346 55.676 35.9066 55.646 35.8869C55.6161 35.8672 55.5811 35.8567 55.5454 35.8566L54.1203 35.8452C54.002 35.8441 53.8868 35.8069 53.7898 35.7385C53.6927 35.67 53.6184 35.5736 53.5766 35.4618C53.5347 35.35 53.5272 35.228 53.5552 35.1118C53.5831 34.9956 53.6451 34.8907 53.7331 34.8107L54.7723 33.8645C54.7994 33.8402 54.8188 33.8083 54.828 33.7729C54.8373 33.7374 54.836 33.7 54.8244 33.6653L54.3879 32.2994C54.3517 32.186 54.3502 32.0643 54.3835 31.95C54.4168 31.8358 54.4833 31.7343 54.5745 31.6587C54.6656 31.5832 54.7771 31.5372 54.8945 31.5266C55.012 31.516 55.1298 31.5413 55.2327 31.5993L56.4621 32.3108C56.4939 32.329 56.5302 32.3375 56.5667 32.3352C56.6032 32.3329 56.6383 32.32 56.6677 32.2979L57.7942 31.457C57.8894 31.3859 58.0037 31.3455 58.1221 31.3412C58.2404 31.3369 58.3573 31.3688 58.4574 31.4329C58.5574 31.4969 58.636 31.59 58.6827 31.6999C58.7295 31.8099 58.7423 31.9315 58.7193 32.0489L58.4476 33.4576C58.4405 33.4929 58.4437 33.5295 58.4567 33.5631C58.4696 33.5966 58.4919 33.6257 58.5208 33.6468L59.6473 34.4721C59.743 34.542 59.8157 34.6394 59.8558 34.7516C59.8959 34.8639 59.9016 34.9857 59.8721 35.1013C59.8426 35.2168 59.7793 35.3207 59.6904 35.3994C59.6016 35.478 59.4914 35.5277 59.3741 35.5421L57.9815 35.7143C57.9459 35.7187 57.9124 35.7334 57.8849 35.7566C57.8574 35.7798 57.8372 35.8106 57.8266 35.8452Z" fill="#FFE33E"/>
<path d="M38.7324 15.8068C39.3556 15.2426 39.4536 14.3259 38.9512 13.7593C38.4489 13.1928 37.5364 13.1909 36.9131 13.7552C36.2899 14.3194 36.1919 15.2361 36.6943 15.8027C37.1966 16.3692 38.1091 16.3711 38.7324 15.8068Z" fill="#86D61E"/>
<path d="M14.1233 9.50759C14.7434 9.07761 14.8629 8.16493 14.3903 7.46904C13.9177 6.77316 13.0319 6.5576 12.4118 6.98758C11.7917 7.41755 11.6722 8.33024 12.1448 9.02612C12.6174 9.722 13.5032 9.93756 14.1233 9.50759Z" fill="#FFE33E"/>
<path d="M57.4405 46.0568C58.1673 45.4715 58.2351 44.336 57.592 43.5205C56.9488 42.7049 55.8382 42.5182 55.1114 43.1034C54.3846 43.6887 54.3168 44.8242 54.9599 45.6397C55.6031 46.4553 56.7137 46.642 57.4405 46.0568Z" fill="#48B5FF"/>
<path d="M13.5877 17.671L11.5191 18.5247C11.4162 18.5683 11.3023 18.578 11.1936 18.5525C11.0849 18.5269 10.9869 18.4674 10.9136 18.3824C10.4911 17.9001 9.72086 16.84 9.68988 15.4869C9.68585 15.3627 9.71032 15.2392 9.76138 15.1261C9.81244 15.0131 9.8887 14.9135 9.98419 14.8352C10.6202 14.3494 11.3784 14.0536 12.1725 13.9815C12.2473 13.977 12.321 14.0019 12.3782 14.0509C12.4353 14.0999 12.4716 14.1693 12.4794 14.2447C12.6892 15.3064 13.1098 16.3142 13.7158 17.2071C13.7422 17.2448 13.76 17.2879 13.7678 17.3333C13.7756 17.3788 13.7733 17.4254 13.761 17.4699C13.7487 17.5143 13.7268 17.5554 13.6968 17.5902C13.6668 17.625 13.6295 17.6526 13.5877 17.671Z" fill="#86D61E"/>
<path d="M51.9628 6.72028L53.0725 9.67559C53.1438 9.83334 53.1669 10.009 53.1388 10.1802C53.1107 10.3513 53.0327 10.51 52.9147 10.636C52.2599 11.2649 50.8025 12.3961 48.8973 12.3108C48.7107 12.2986 48.5292 12.244 48.3663 12.1511C48.2034 12.0583 48.0634 11.9295 47.9566 11.7743C47.2131 10.7371 46.9906 9.86198 46.8301 8.63404C46.8212 8.57963 46.8233 8.52394 46.8365 8.4704C46.8497 8.41687 46.8736 8.36663 46.9067 8.32277C46.9398 8.27892 46.9814 8.24238 47.0291 8.2154C47.0767 8.18842 47.1292 8.17158 47.1835 8.16592C48.6661 7.93766 50.0745 7.35899 51.294 6.47697C51.5164 6.30053 51.8417 6.42148 51.9628 6.72028Z" fill="#FFE33E"/>
<path d="M52.9696 5.72993L51.7135 7.57255C51.6519 7.66304 51.5637 7.73165 51.4613 7.76868C51.359 7.8057 51.2477 7.80927 51.1432 7.77887C50.5476 7.6067 49.3661 7.14427 48.6395 6.05008C48.5719 5.95032 48.528 5.83617 48.5112 5.71649C48.4943 5.59681 48.505 5.47482 48.5424 5.35998C48.8113 4.60997 49.2795 3.94931 49.8956 3.45049C49.9545 3.40607 50.0283 3.38671 50.1012 3.39655C50.1741 3.40639 50.2403 3.44464 50.2857 3.50313C51.0073 4.26388 51.8745 4.8685 52.8344 5.2803C52.876 5.29693 52.9133 5.32282 52.9436 5.35604C52.9739 5.38926 52.9963 5.42896 53.0093 5.47217C53.0223 5.51539 53.0255 5.56101 53.0186 5.60564C53.0117 5.65027 52.995 5.69275 52.9696 5.72993Z" fill="#F41B60"/>
</g>
<defs>
<radialGradient id="paint0_radial_328_4101" cx="0" cy="0" r="1" gradientUnits="userSpaceOnUse" gradientTransform="translate(19.2129 41.3463) rotate(45.2979) scale(23.1242 23.1229)">
<stop offset="0.47" stop-color="#F0AA2E"/>
<stop offset="1" stop-color="#E07A1D"/>
</radialGradient>
<clipPath id="clip0_328_4101">
<rect width="60" height="60" fill="white"/>
</clipPath>
</defs>
</svg>
